<?xml version="1.0" encoding="UTF-8"?>
<svg id="a" data-name="图层 1" xmlns="http://www.w3.org/2000/svg" width="226.77" height="226.77" xmlns:xlink="http://www.w3.org/1999/xlink" viewBox="0 0 226.77 226.77">
  <defs>
    <linearGradient id="b" data-name="未命名的渐变 7" x1="33.21" y1="193.56" x2="221.63" y2="5.14" gradientUnits="userSpaceOnUse">
      <stop offset=".21" stop-color="#ffc200"/>
      <stop offset=".64" stop-color="#ff3600"/>
    </linearGradient>
  </defs>
  <path d="m226.75,17.96v-.94c0,.16.02.31.02.47h0c0,.16-.02.31-.02.47ZM209.33.05c-9.63,0-17.44,7.81-17.44,17.44h0c0,9.63,7.81,17.44,17.44,17.44s17.17-7.56,17.42-16.97v-.94C226.5,7.61,218.8.05,209.33.05Zm17.42,113.36h-34.86c0,20.08-7.67,40.16-22.99,55.48-15.33,15.33-35.42,22.99-55.51,22.99s-40.18-7.66-55.51-22.99c-30.66-30.66-30.66-80.36,0-111.01,15.32-15.32,35.4-22.98,55.48-22.99,0,0,.02,0,.02,0v.05h56.67V.05h-53.48c-.41-.01-.82-.02-1.24-.02-.65-.01-1.3-.02-1.95-.02-30.29,0-58.76,11.79-80.18,33.21C11.79,54.63,0,83.1,0,113.39s11.79,58.76,33.21,80.18c21.42,21.42,49.89,33.21,80.18,33.21s58.76-11.79,80.18-33.21c21.42-21.42,33.21-49.89,33.21-80.18m-13.91-54.51h-99.48c-14.55,0-28.25,5.68-38.54,15.97-21.25,21.25-21.25,55.84,0,77.09,10.3,10.3,23.99,15.97,38.55,15.97s28.25-5.67,38.55-15.97c10.62-10.62,15.93-24.57,15.94-38.52h-34.86c0,5.01-1.92,10.03-5.75,13.85-3.83,3.83-8.85,5.75-13.88,5.75s-10.04-1.92-13.88-5.75c-7.66-7.66-7.66-20.09,0-27.75,3.83-3.83,8.85-5.74,13.86-5.75h0s50.85,0,50.85,0h62.5v-34.89h-13.87Z" fill="url(#b)"/>
</svg>